<svg width="25" height="25" viewBox="0 0 25 25" fill="none" xmlns="http://www.w3.org/2000/svg">
<path d="M23.5 4.5H5.5C4.94772 4.5 4.5 4.94772 4.5 5.5V23.5C4.5 24.0523 4.94772 24.5 5.5 24.5H23.5C24.0523 24.5 24.5 24.0523 24.5 23.5V5.5C24.5 4.94772 24.0523 4.5 23.5 4.5Z" fill="#96E7E5"/>
<path d="M6.5 9V17M16.5 17V13C16.5 11.067 14.933 9.5 13 9.5C11.067 9.5 9.5 11.067 9.5 13V17V9M6 6.5H7M2.5 1.5H20.5C21.0523 1.5 21.5 1.94772 21.5 2.5V20.5C21.5 21.0523 21.0523 21.5 20.5 21.5H2.5C1.94772 21.5 1.5 21.0523 1.5 20.5V2.5C1.5 1.94772 1.94772 1.5 2.5 1.5Z" stroke="#1E2875" stroke-width="1.5"/>
</svg>
