<svg width="25" height="24" viewBox="0 0 25 24" fill="none" xmlns="http://www.w3.org/2000/svg">
<path d="M20 23.5H10C7 23.5 5 22 5 18.5V11.5C5 8 7 6.5 10 6.5H20C23 6.5 25 8 25 11.5V18.5C25 22 23 23.5 20 23.5Z" fill="#96E7E5"/>
<path d="M17 20.5H7C4 20.5 2 19 2 15.5V8.5C2 5 4 3.5 7 3.5H17C20 3.5 22 5 22 8.5V15.5C22 19 20 20.5 17 20.5Z" stroke="#1E2875" stroke-width="1.5" stroke-miterlimit="10" stroke-linecap="round" stroke-linejoin="round"/>
<path d="M17 9L13.87 11.5C12.84 12.32 11.15 12.32 10.12 11.5L7 9" stroke="#1E2875" stroke-width="1.5" stroke-miterlimit="10" stroke-linecap="round" stroke-linejoin="round"/>
</svg>
