<svg width="25" height="24" viewBox="0 0 25 24" fill="none" xmlns="http://www.w3.org/2000/svg">
<path d="M4.5 13.5C4.5 19.0228 8.97715 23.5 14.5 23.5C20.0228 23.5 24.5 19.0228 24.5 13.5C24.5 7.97715 20.0228 3.5 14.5 3.5C8.97715 3.5 4.5 7.97715 4.5 13.5Z" fill="#96E7E5"/>
<path d="M21.4691 2L22.2175 1.95038C22.1975 1.64953 21.9994 1.38987 21.7144 1.29125C21.4295 1.19263 21.1132 1.27424 20.9116 1.4984L21.4691 2ZM20.7928 6.22701C20.7928 5.81279 20.457 5.47701 20.0428 5.47701C19.6286 5.47701 19.2928 5.81279 19.2928 6.22701H20.7928ZM11.5 7.5V8.25H12.25V7.5H11.5ZM2.92637 2L3.62875 1.73701C3.5241 1.45751 3.26368 1.26666 2.96564 1.25103C2.66759 1.2354 2.38865 1.39798 2.25534 1.665L2.92637 2ZM8.5 15L9.03074 15.5299C9.21428 15.3461 9.28963 15.0804 9.22991 14.8276C9.17019 14.5748 8.9839 14.3709 8.7375 14.2886L8.5 15ZM1.5 17.7143V16.9643C1.1696 16.9643 0.878116 17.1805 0.782259 17.4967C0.686401 17.8129 0.80875 18.1546 1.08353 18.338L1.5 17.7143ZM18.9515 3.39054L18.3952 3.89356L18.6654 4.19242L19.0638 4.13209L18.9515 3.39054ZM20.7208 2.04962C20.7943 3.15897 20.7259 3.82787 20.5481 4.32885C20.376 4.81416 20.0753 5.21579 19.5239 5.7442L20.5617 6.82723C21.1889 6.2262 21.6774 5.63201 21.9618 4.83034C22.2407 4.04435 22.296 3.13512 22.2175 1.95038L20.7208 2.04962ZM20.7928 7.26785V6.28571H19.2928V7.26785H20.7928ZM20.7928 6.28571V6.22701H19.2928V6.28571H20.7928ZM10.75 6.5V7.5H12.25V6.5H10.75ZM15.8223 1.25C12.9742 1.25 10.75 3.72565 10.75 6.5H12.25C12.25 4.47563 13.879 2.75 15.8223 2.75V1.25ZM19.2928 7.26785C19.2928 13.4268 14.1194 18.75 8 18.75V20.25C14.9771 20.25 20.7928 14.2257 20.7928 7.26785H19.2928ZM2.22399 2.26299C3.0148 4.37507 5.96988 8.25 11.5 8.25V6.75C6.76028 6.75 4.26431 3.43445 3.62875 1.73701L2.22399 2.26299ZM2.25534 1.665C0.758323 4.66367 0.492022 7.61001 1.5444 10.1285C2.5968 12.6469 4.90667 14.5911 8.2625 15.7114L8.7375 14.2886C5.67468 13.2661 3.77137 11.5673 2.92843 9.55012C2.08547 7.53284 2.24168 5.05062 3.59739 2.335L2.25534 1.665ZM7.96926 14.4701C7.12515 15.3155 4.68083 16.9643 1.5 16.9643V18.4643C5.16573 18.4643 7.97306 16.5893 9.03074 15.5299L7.96926 14.4701ZM19.5078 2.88753C18.5995 1.88301 17.2843 1.25 15.8223 1.25V2.75C16.8423 2.75 17.759 3.18997 18.3952 3.89356L19.5078 2.88753ZM19.0638 4.13209C20.1588 3.96625 21.2262 3.39147 22.0267 2.5016L20.9116 1.4984C20.3342 2.14017 19.5774 2.53719 18.8392 2.649L19.0638 4.13209ZM1.08353 18.338C3.38546 19.875 5.60213 20.25 8 20.25V18.75C5.78813 18.75 3.89364 18.4107 1.91647 17.0905L1.08353 18.338Z" fill="#1E2875"/>
</svg>
