<svg width="80" height="80" viewBox="0 0 80 80" fill="none" xmlns="http://www.w3.org/2000/svg">
<circle opacity="0.2" cx="61" cy="61" r="19" fill="#1E2875"/>
<g opacity="0.9" filter="url(#filter0_bf_4345_4226)">
<path d="M58.6667 26.187V51.8137C58.6667 55.7403 58.305 58.5303 57.375 60.5195C57.375 60.5453 57.3491 60.597 57.3233 60.6228C56.7549 61.3462 56.0058 61.7078 55.1275 61.7078C53.7583 61.7078 52.105 60.8037 50.3225 58.892C48.2042 56.6187 44.9491 56.7995 43.0891 59.2795L40.4801 62.7412C39.4467 64.1362 38.0775 64.8337 36.7083 64.8337C35.3392 64.8337 33.9699 64.1362 32.9366 62.7412L30.3017 59.2537C28.4676 56.7995 25.2383 56.6187 23.12 58.8662L23.0941 58.892C20.1749 62.0178 17.5917 62.4828 16.0934 60.6228C16.0676 60.597 16.0417 60.5453 16.0417 60.5195C15.1117 58.5303 14.75 55.7403 14.75 51.8137V26.187C14.75 22.2603 15.1117 19.4703 16.0417 17.4812C16.0417 17.4553 16.0417 17.4295 16.0934 17.4037C17.5659 15.5178 20.1749 15.9828 23.0941 19.1087L23.12 19.1345C25.2383 21.382 28.4676 21.2012 30.3017 18.747L32.9366 15.2595C33.9699 13.8645 35.3392 13.167 36.7083 13.167C38.0775 13.167 39.4467 13.8645 40.4801 15.2595L43.0891 18.7212C44.9491 21.2012 48.2042 21.382 50.3225 19.1087C52.105 17.197 53.7583 16.2928 55.1275 16.2928C56.0058 16.2928 56.7549 16.6803 57.3233 17.4037C57.3749 17.4295 57.375 17.4553 57.375 17.4812C58.305 19.4703 58.6667 22.2603 58.6667 26.187Z" fill="#F2F6FA"/>
</g>
<path d="M58.6667 26.1865V51.8132C58.6667 55.7398 58.305 58.5298 57.375 60.519C57.375 60.5448 57.3491 60.5965 57.3233 60.6223C56.7549 61.3457 56.0058 61.7073 55.1275 61.7073C53.7583 61.7073 52.105 60.8032 50.3225 58.8915C48.2042 56.6182 44.9491 56.799 43.0891 59.279L40.4801 62.7407C39.4467 64.1357 38.0775 64.8332 36.7083 64.8332C35.3392 64.8332 33.9699 64.1357 32.9366 62.7407L30.3017 59.2532C28.4676 56.799 25.2383 56.6182 23.12 58.8657L23.0941 58.8915C20.1749 62.0173 17.5917 62.4823 16.0934 60.6223C16.0676 60.5965 16.0417 60.5448 16.0417 60.519C15.1117 58.5298 14.75 55.7398 14.75 51.8132V26.1865C14.75 22.2598 15.1117 19.4698 16.0417 17.4807C16.0417 17.4548 16.0417 17.429 16.0934 17.4032C17.5659 15.5173 20.1749 15.9823 23.0941 19.1082L23.12 19.134C25.2383 21.3815 28.4676 21.2007 30.3017 18.7465L32.9366 15.259C33.9699 13.864 35.3392 13.1665 36.7083 13.1665C38.0775 13.1665 39.4467 13.864 40.4801 15.259L43.0891 18.7207C44.9491 21.2007 48.2042 21.3815 50.3225 19.1082C52.105 17.1965 53.7583 16.2923 55.1275 16.2923C56.0058 16.2923 56.7549 16.6798 57.3233 17.4032C57.3749 17.429 57.375 17.4548 57.375 17.4807C58.305 19.4698 58.6667 22.2598 58.6667 26.1865Z" stroke="#1E2875" stroke-width="3" stroke-linecap="round" stroke-linejoin="round"/>
<path d="M27.6667 34.479H48.3334" stroke="#1E2875" stroke-width="3" stroke-linecap="round" stroke-linejoin="round"/>
<path d="M27.6667 43.521H43.1667" stroke="#1E2875" stroke-width="3" stroke-linecap="round" stroke-linejoin="round"/>
<g opacity="0.1">
<circle cx="1.5" cy="1.5" r="1.5" fill="#1E2875"/>
<circle cx="8.5" cy="1.5" r="1.5" fill="#1E2875"/>
<circle cx="15.5" cy="1.5" r="1.5" fill="#1E2875"/>
<circle cx="22.5" cy="1.5" r="1.5" fill="#1E2875"/>
<circle cx="29.5" cy="1.5" r="1.5" fill="#1E2875"/>
<circle cx="1.5" cy="7.5" r="1.5" fill="#1E2875"/>
<circle cx="8.5" cy="7.5" r="1.5" fill="#1E2875"/>
<circle cx="15.5" cy="7.5" r="1.5" fill="#1E2875"/>
<circle cx="22.5" cy="7.5" r="1.5" fill="#1E2875"/>
<circle cx="29.5" cy="7.5" r="1.5" fill="#1E2875"/>
<circle cx="1.5" cy="13.5" r="1.5" fill="#1E2875"/>
<circle cx="8.5" cy="13.5" r="1.5" fill="#1E2875"/>
<circle cx="15.5" cy="13.5" r="1.5" fill="#1E2875"/>
<circle cx="22.5" cy="13.5" r="1.5" fill="#1E2875"/>
<circle cx="29.5" cy="13.5" r="1.5" fill="#1E2875"/>
<circle cx="1.5" cy="19.5" r="1.5" fill="#1E2875"/>
<circle cx="8.5" cy="19.5" r="1.5" fill="#1E2875"/>
<circle cx="15.5" cy="19.5" r="1.5" fill="#1E2875"/>
<circle cx="22.5" cy="19.5" r="1.5" fill="#1E2875"/>
<circle cx="29.5" cy="19.5" r="1.5" fill="#1E2875"/>
<circle cx="1.5" cy="25.5" r="1.5" fill="#1E2875"/>
<circle cx="8.5" cy="25.5" r="1.5" fill="#1E2875"/>
<circle cx="15.5" cy="25.5" r="1.5" fill="#1E2875"/>
<circle cx="22.5" cy="25.5" r="1.5" fill="#1E2875"/>
<circle cx="29.5" cy="25.5" r="1.5" fill="#1E2875"/>
<circle cx="1.5" cy="31.5" r="1.5" fill="#1E2875"/>
<circle cx="8.5" cy="31.5" r="1.5" fill="#1E2875"/>
<circle cx="15.5" cy="31.5" r="1.5" fill="#1E2875"/>
<circle cx="22.5" cy="31.5" r="1.5" fill="#1E2875"/>
<circle cx="29.5" cy="31.5" r="1.5" fill="#1E2875"/>
</g>
<defs>
<filter id="filter0_bf_4345_4226" x="-25.25" y="-26.833" width="123.917" height="131.667" filterUnits="userSpaceOnUse" color-interpolation-filters="sRGB">
<feFlood flood-opacity="0" result="BackgroundImageFix"/>
<feGaussianBlur in="BackgroundImage" stdDeviation="20"/>
<feComposite in2="SourceAlpha" operator="in" result="effect1_backgroundBlur_4345_4226"/>
<feBlend mode="normal" in="SourceGraphic" in2="effect1_backgroundBlur_4345_4226" result="shape"/>
<feGaussianBlur stdDeviation="4.5" result="effect2_foregroundBlur_4345_4226"/>
</filter>
</defs>
</svg>
