<svg width="80" height="80" viewBox="0 0 80 80" fill="none" xmlns="http://www.w3.org/2000/svg">
<circle opacity="0.2" cx="61" cy="61" r="19" fill="#3699FF"/>
<g opacity="0.9" filter="url(#filter0_bf_4345_6248)">
<path d="M63.8334 39.0003C63.8334 53.2603 52.2601 64.8337 38.0001 64.8337C23.7401 64.8337 12.1667 53.2603 12.1667 39.0003C12.1667 24.7403 23.7401 13.167 38.0001 13.167C52.2601 13.167 63.8334 24.7403 63.8334 39.0003Z" fill="#F2F6FA"/>
</g>
<path d="M63.8334 38.9998C63.8334 53.2598 52.2601 64.8332 38.0001 64.8332C23.7401 64.8332 12.1667 53.2598 12.1667 38.9998C12.1667 24.7398 23.7401 13.1665 38.0001 13.1665C52.2601 13.1665 63.8334 24.7398 63.8334 38.9998Z" stroke="#1E2875" stroke-width="3" stroke-linecap="round" stroke-linejoin="round"/>
<path d="M47.5842 47.215L39.5759 42.4359C38.1809 41.6092 37.0442 39.62 37.0442 37.9925V27.4009" stroke="#1E2875" stroke-width="3" stroke-linecap="round" stroke-linejoin="round"/>
<path d="M25.5 15L15 5" stroke="#1E2875" stroke-width="3" stroke-linecap="round" stroke-linejoin="round"/>
<path d="M51 15L61.5 5" stroke="#1E2875" stroke-width="3" stroke-linecap="round" stroke-linejoin="round"/>
<g opacity="0.1">
<circle cx="1.5" cy="1.5" r="1.5" fill="#1E2875"/>
<circle cx="8.5" cy="1.5" r="1.5" fill="#1E2875"/>
<circle cx="15.5" cy="1.5" r="1.5" fill="#1E2875"/>
<circle cx="22.5" cy="1.5" r="1.5" fill="#1E2875"/>
<circle cx="29.5" cy="1.5" r="1.5" fill="#1E2875"/>
<circle cx="1.5" cy="7.5" r="1.5" fill="#1E2875"/>
<circle cx="8.5" cy="7.5" r="1.5" fill="#1E2875"/>
<circle cx="15.5" cy="7.5" r="1.5" fill="#1E2875"/>
<circle cx="22.5" cy="7.5" r="1.5" fill="#1E2875"/>
<circle cx="29.5" cy="7.5" r="1.5" fill="#1E2875"/>
<circle cx="1.5" cy="13.5" r="1.5" fill="#1E2875"/>
<circle cx="8.5" cy="13.5" r="1.5" fill="#1E2875"/>
<circle cx="15.5" cy="13.5" r="1.5" fill="#1E2875"/>
<circle cx="22.5" cy="13.5" r="1.5" fill="#1E2875"/>
<circle cx="29.5" cy="13.5" r="1.5" fill="#1E2875"/>
<circle cx="1.5" cy="19.5" r="1.5" fill="#1E2875"/>
<circle cx="8.5" cy="19.5" r="1.5" fill="#1E2875"/>
<circle cx="15.5" cy="19.5" r="1.5" fill="#1E2875"/>
<circle cx="22.5" cy="19.5" r="1.5" fill="#1E2875"/>
<circle cx="29.5" cy="19.5" r="1.5" fill="#1E2875"/>
<circle cx="1.5" cy="25.5" r="1.5" fill="#1E2875"/>
<circle cx="8.5" cy="25.5" r="1.5" fill="#1E2875"/>
<circle cx="15.5" cy="25.5" r="1.5" fill="#1E2875"/>
<circle cx="22.5" cy="25.5" r="1.5" fill="#1E2875"/>
<circle cx="29.5" cy="25.5" r="1.5" fill="#1E2875"/>
<circle cx="1.5" cy="31.5" r="1.5" fill="#1E2875"/>
<circle cx="8.5" cy="31.5" r="1.5" fill="#1E2875"/>
<circle cx="15.5" cy="31.5" r="1.5" fill="#1E2875"/>
<circle cx="22.5" cy="31.5" r="1.5" fill="#1E2875"/>
<circle cx="29.5" cy="31.5" r="1.5" fill="#1E2875"/>
</g>
<defs>
<filter id="filter0_bf_4345_6248" x="-27.8333" y="-26.833" width="131.667" height="131.667" filterUnits="userSpaceOnUse" color-interpolation-filters="sRGB">
<feFlood flood-opacity="0" result="BackgroundImageFix"/>
<feGaussianBlur in="BackgroundImage" stdDeviation="20"/>
<feComposite in2="SourceAlpha" operator="in" result="effect1_backgroundBlur_4345_6248"/>
<feBlend mode="normal" in="SourceGraphic" in2="effect1_backgroundBlur_4345_6248" result="shape"/>
<feGaussianBlur stdDeviation="4.5" result="effect2_foregroundBlur_4345_6248"/>
</filter>
</defs>
</svg>
