<svg width="81" height="94" viewBox="0 0 81 94" fill="none" xmlns="http://www.w3.org/2000/svg">
<path d="M64.5816 4.62684C64.5755 4.29881 64.699 3.98179 64.9249 3.7455C65.1507 3.50922 65.4605 3.37304 65.786 3.36691C66.1115 3.36079 66.426 3.48523 66.6605 3.71285C66.895 3.94048 67.0301 4.25264 67.0361 4.58067L64.5816 4.62684ZM2.30324 77.7976C1.97786 77.7868 1.67007 77.6461 1.44758 77.4066C1.2251 77.1671 1.10614 76.8483 1.11688 76.5204C1.12762 76.1924 1.26718 75.8822 1.50486 75.658C1.74253 75.4338 2.05886 75.3139 2.38424 75.3247L2.30324 77.7976ZM67.0353 4.58067C67.2701 17.0975 64.3443 35.7738 54.7438 51.1486C45.0942 66.6025 28.7191 78.6716 2.30324 77.7968L2.38424 75.3239C27.8502 76.1674 43.4373 64.6096 52.6664 49.831C61.9438 34.974 64.8099 16.8114 64.5816 4.62684L67.0361 4.58067H67.0353Z" fill="#96E7E5"/>
<path d="M6.37862 70.4755C6.66505 70.3253 6.99866 70.295 7.30714 70.391C7.61563 70.4871 7.87413 70.7017 8.02665 70.9885C8.17916 71.2753 8.21339 71.6111 8.12192 71.9232C8.03045 72.2352 7.82065 72.4984 7.53798 72.6556L6.37862 70.4747V70.4755ZM1.59798 76.4964L2.82525 76.5261L1.59798 76.4964ZM9.54989 80.0635C9.70986 80.0911 9.86279 80.1504 9.99986 80.238C10.1369 80.3256 10.2554 80.4398 10.3484 80.5738C10.4414 80.7078 10.5071 80.8591 10.5417 81.0189C10.5763 81.1788 10.5791 81.3439 10.5499 81.5048C10.5207 81.6657 10.4602 81.8192 10.3718 81.9563C10.2834 82.0935 10.1688 82.2116 10.0348 82.3039C9.90081 82.3961 9.74997 82.4607 9.59103 82.4938C9.43209 82.5269 9.26822 82.5279 9.10889 82.4968L9.54989 80.0635ZM7.53716 72.6556C6.8368 73.0341 5.57352 73.7985 4.49762 74.6577C3.95762 75.0881 3.50434 75.5127 3.19507 75.8953C3.04125 76.085 2.94143 76.2416 2.88416 76.3637C2.82443 76.4874 2.82525 76.5368 2.82525 76.5261L0.370706 76.4668C0.391161 75.6175 0.853433 74.8753 1.29198 74.3328C1.75834 73.7556 2.3638 73.2048 2.97252 72.7191C4.19489 71.7428 5.59071 70.9001 6.37862 70.4747L7.53798 72.6556H7.53716ZM2.82443 76.5261C2.81871 76.7933 3.00116 77.401 4.10325 78.1456C5.17671 78.8712 6.94234 79.5836 9.54989 80.0635L9.10889 82.4968C6.30743 81.9814 4.18589 81.1799 2.73607 80.2004C1.31489 79.2398 0.336342 77.9534 0.371524 76.4676L2.82525 76.5253L2.82443 76.5261Z" fill="#96E7E5"/>
</svg>
