<svg width="25" height="25" viewBox="0 0 25 25" fill="none" xmlns="http://www.w3.org/2000/svg">
<path d="M4.5 14.5C4.5 20.0228 8.97715 24.5 14.5 24.5C20.0228 24.5 24.5 20.0228 24.5 14.5C24.5 8.97715 20.0228 4.5 14.5 4.5C8.97715 4.5 4.5 8.97715 4.5 14.5Z" fill="#96E7E5"/>
<path d="M11.5 21.5C5.97715 21.5 1.5 17.0228 1.5 11.5C1.5 5.97715 5.97715 1.5 11.5 1.5C17.0228 1.5 21.5 5.97715 21.5 11.5C21.5 17.0228 17.0228 21.5 11.5 21.5ZM11.5 21.5V9.5C11.5 8.39543 12.3954 7.5 13.5 7.5H15M8 13.5H15" stroke="#1E2875" stroke-width="1.5"/>
</svg>
