<svg width="25" height="25" viewBox="0 0 25 25" fill="none" xmlns="http://www.w3.org/2000/svg">
<path d="M20.5 4.5H8.5C6.29086 4.5 4.5 6.29086 4.5 8.5V20.5C4.5 22.7091 6.29086 24.5 8.5 24.5H20.5C22.7091 24.5 24.5 22.7091 24.5 20.5V8.5C24.5 6.29086 22.7091 4.5 20.5 4.5Z" fill="#96E7E5"/>
<path d="M17 6.5H18M5.5 1.5H17.5C19.7091 1.5 21.5 3.29086 21.5 5.5V17.5C21.5 19.7091 19.7091 21.5 17.5 21.5H5.5C3.29086 21.5 1.5 19.7091 1.5 17.5V5.5C1.5 3.29086 3.29086 1.5 5.5 1.5ZM11.5 15.5C9.29086 15.5 7.5 13.7091 7.5 11.5C7.5 9.29086 9.29086 7.5 11.5 7.5C13.7091 7.5 15.5 9.29086 15.5 11.5C15.5 13.7091 13.7091 15.5 11.5 15.5Z" stroke="#1E2875" stroke-width="1.5"/>
</svg>
