<svg width="56" height="45" viewBox="0 0 56 45" fill="none" xmlns="http://www.w3.org/2000/svg">
<path d="M18.0102 0.512907C19.2925 -0.317515 20.4582 -0.139566 21.5073 1.04676C22.5564 2.11445 22.4982 3.24145 21.3325 4.42777C15.9702 9.52896 12.7062 14.8081 11.5405 20.2652C11.1908 22.0447 11.7154 22.9344 13.1142 22.9344C15.5622 22.9344 17.6022 23.9428 19.2342 25.9595C20.9827 27.8576 21.857 30.3489 21.857 33.4334C21.857 36.8737 20.8662 39.6616 18.8845 41.7969C17.0193 43.9323 14.4548 45 11.1908 45C8.04339 45 5.36226 43.8137 3.14741 41.441C1.04914 39.0684 0 35.8653 0 31.8318C0 19.3754 6.0034 8.9358 18.0102 0.512907ZM51.7574 0.512907C53.0397 -0.317515 54.2054 -0.139566 55.2546 1.04676C56.3037 2.11445 56.2454 3.24145 55.0797 4.42777C49.6009 9.52896 46.3369 14.8081 45.2878 20.2652C44.938 22.0447 45.4626 22.9344 46.8615 22.9344C49.3094 22.9344 51.3494 23.9428 52.9814 25.9595C54.6134 27.8576 55.4294 30.3489 55.4294 33.4334C55.4294 36.8737 54.4386 39.6616 52.4569 41.7969C50.5917 43.9323 48.0855 45 44.938 45C41.7906 45 39.1095 43.8137 36.8947 41.441C34.7964 39.0684 33.7472 35.8653 33.7472 31.8318C33.7472 19.3754 39.7506 8.9358 51.7574 0.512907Z" fill="#96E7E5"/>
</svg>
