<svg width="80" height="80" viewBox="0 0 80 80" fill="none" xmlns="http://www.w3.org/2000/svg">
<circle opacity="0.2" cx="61" cy="61" r="19" fill="#FF6C00"/>
<g opacity="0.9" filter="url(#filter0_bf_4345_3541)">
<path d="M58.6667 26.187V51.8137C58.6667 55.7403 58.305 58.5303 57.375 60.5195C57.375 60.5453 57.3491 60.597 57.3233 60.6228C56.7549 61.3462 56.0058 61.7078 55.1275 61.7078C53.7583 61.7078 52.105 60.8037 50.3225 58.892C48.2042 56.6187 44.9491 56.7995 43.0891 59.2795L40.4801 62.7412C39.4467 64.1362 38.0775 64.8337 36.7083 64.8337C35.3392 64.8337 33.9699 64.1362 32.9366 62.7412L30.3017 59.2537C28.4676 56.7995 25.2383 56.6187 23.12 58.8662L23.0941 58.892C20.1749 62.0178 17.5917 62.4828 16.0934 60.6228C16.0676 60.597 16.0417 60.5453 16.0417 60.5195C15.1117 58.5303 14.75 55.7403 14.75 51.8137V26.187C14.75 22.2603 15.1117 19.4703 16.0417 17.4812C16.0417 17.4553 16.0417 17.4295 16.0934 17.4037C17.5659 15.5178 20.1749 15.9828 23.0941 19.1087L23.12 19.1345C25.2383 21.382 28.4676 21.2012 30.3017 18.747L32.9366 15.2595C33.9699 13.8645 35.3392 13.167 36.7083 13.167C38.0775 13.167 39.4467 13.8645 40.4801 15.2595L43.0891 18.7212C44.9491 21.2012 48.2042 21.382 50.3225 19.1087C52.105 17.197 53.7583 16.2928 55.1275 16.2928C56.0058 16.2928 56.7549 16.6803 57.3233 17.4037C57.3749 17.4295 57.375 17.4553 57.375 17.4812C58.305 19.4703 58.6667 22.2603 58.6667 26.187Z" fill="#F2F6FA"/>
</g>
<g opacity="0.9" filter="url(#filter1_bf_4345_3541)">
<path d="M52.2087 27.7112V20.917C52.2087 15.7503 49.6253 13.167 44.4587 13.167H31.542C26.3753 13.167 23.792 15.7503 23.792 20.917V27.5303" fill="#F2F6FA"/>
<path d="M18.0049 36.4685V49.3077C18.0049 54.0094 18.0049 54.0094 22.4482 57.006L34.6674 64.0585C36.5015 65.1177 39.4982 65.1177 41.3324 64.0585L53.5515 57.006C57.9949 54.0094 57.9949 54.0094 57.9949 49.3077V36.4685C57.9949 31.7669 57.9949 31.7669 53.5515 28.7702L41.3324 21.7177C39.4982 20.6585 36.5015 20.6585 34.6674 21.7177L22.4482 28.7702C18.0049 31.7669 18.0049 31.7669 18.0049 36.4685Z" fill="#F2F6FA"/>
</g>
<path d="M18.0049 36.4685V49.3077C18.0049 54.0094 18.0049 54.0094 22.4482 57.006L34.6674 64.0585C36.5015 65.1177 39.4982 65.1177 41.3324 64.0585L53.5515 57.006C57.9949 54.0094 57.9949 54.0094 57.9949 49.3077V36.4685C57.9949 31.7669 57.9949 31.7669 53.5515 28.7702L41.3324 21.7177C39.4982 20.6585 36.5015 20.6585 34.6674 21.7177L22.4482 28.7702C18.0049 31.7669 18.0049 31.7669 18.0049 36.4685Z" stroke="#1E2875" stroke-width="3" stroke-linecap="round" stroke-linejoin="round"/>
<path d="M52.2082 27.7107V20.9165C52.2082 15.7498 49.6248 13.1665 44.4582 13.1665H31.5415C26.3748 13.1665 23.7915 15.7498 23.7915 20.9165V27.5298" stroke="#1E2875" stroke-width="3" stroke-linecap="round" stroke-linejoin="round"/>
<path d="M39.6276 36.391L41.1001 38.6901C41.3326 39.0518 41.8493 39.4135 42.2368 39.5168L44.8718 40.1885C46.4993 40.6018 46.9384 41.9968 45.8793 43.2885L44.1484 45.381C43.8901 45.7168 43.6834 46.311 43.7093 46.7243L43.8643 49.4368C43.9676 51.116 42.7793 51.9685 41.2293 51.3485L38.6976 50.341C38.3101 50.186 37.6643 50.186 37.2768 50.341L34.7451 51.3485C33.1951 51.9685 32.0068 51.0901 32.1101 49.4368L32.2651 46.7243C32.2909 46.311 32.0842 45.691 31.8259 45.381L30.0951 43.2885C29.0359 41.9968 29.4751 40.6018 31.1026 40.1885L33.7376 39.5168C34.1509 39.4135 34.6676 39.026 34.8743 38.6901L36.3467 36.391C37.2768 34.996 38.7234 34.996 39.6276 36.391Z" stroke="#1E2875" stroke-width="3" stroke-linecap="round" stroke-linejoin="round"/>
<g opacity="0.1">
<circle cx="1.5" cy="1.5" r="1.5" fill="#1E2875"/>
<circle cx="8.5" cy="1.5" r="1.5" fill="#1E2875"/>
<circle cx="15.5" cy="1.5" r="1.5" fill="#1E2875"/>
<circle cx="22.5" cy="1.5" r="1.5" fill="#1E2875"/>
<circle cx="29.5" cy="1.5" r="1.5" fill="#1E2875"/>
<circle cx="1.5" cy="7.5" r="1.5" fill="#1E2875"/>
<circle cx="8.5" cy="7.5" r="1.5" fill="#1E2875"/>
<circle cx="15.5" cy="7.5" r="1.5" fill="#1E2875"/>
<circle cx="22.5" cy="7.5" r="1.5" fill="#1E2875"/>
<circle cx="29.5" cy="7.5" r="1.5" fill="#1E2875"/>
<circle cx="1.5" cy="13.5" r="1.5" fill="#1E2875"/>
<circle cx="8.5" cy="13.5" r="1.5" fill="#1E2875"/>
<circle cx="15.5" cy="13.5" r="1.5" fill="#1E2875"/>
<circle cx="22.5" cy="13.5" r="1.5" fill="#1E2875"/>
<circle cx="29.5" cy="13.5" r="1.5" fill="#1E2875"/>
<circle cx="1.5" cy="19.5" r="1.5" fill="#1E2875"/>
<circle cx="8.5" cy="19.5" r="1.5" fill="#1E2875"/>
<circle cx="15.5" cy="19.5" r="1.5" fill="#1E2875"/>
<circle cx="22.5" cy="19.5" r="1.5" fill="#1E2875"/>
<circle cx="29.5" cy="19.5" r="1.5" fill="#1E2875"/>
<circle cx="1.5" cy="25.5" r="1.5" fill="#1E2875"/>
<circle cx="8.5" cy="25.5" r="1.5" fill="#1E2875"/>
<circle cx="15.5" cy="25.5" r="1.5" fill="#1E2875"/>
<circle cx="22.5" cy="25.5" r="1.5" fill="#1E2875"/>
<circle cx="29.5" cy="25.5" r="1.5" fill="#1E2875"/>
<circle cx="1.5" cy="31.5" r="1.5" fill="#1E2875"/>
<circle cx="8.5" cy="31.5" r="1.5" fill="#1E2875"/>
<circle cx="15.5" cy="31.5" r="1.5" fill="#1E2875"/>
<circle cx="22.5" cy="31.5" r="1.5" fill="#1E2875"/>
<circle cx="29.5" cy="31.5" r="1.5" fill="#1E2875"/>
</g>
<defs>
<filter id="filter0_bf_4345_3541" x="-25.25" y="-26.833" width="123.917" height="131.667" filterUnits="userSpaceOnUse" color-interpolation-filters="sRGB">
<feFlood flood-opacity="0" result="BackgroundImageFix"/>
<feGaussianBlur in="BackgroundImage" stdDeviation="20"/>
<feComposite in2="SourceAlpha" operator="in" result="effect1_backgroundBlur_4345_3541"/>
<feBlend mode="normal" in="SourceGraphic" in2="effect1_backgroundBlur_4345_3541" result="shape"/>
<feGaussianBlur stdDeviation="4.5" result="effect2_foregroundBlur_4345_3541"/>
</filter>
<filter id="filter1_bf_4345_3541" x="-21.9951" y="-26.833" width="119.99" height="131.686" filterUnits="userSpaceOnUse" color-interpolation-filters="sRGB">
<feFlood flood-opacity="0" result="BackgroundImageFix"/>
<feGaussianBlur in="BackgroundImage" stdDeviation="20"/>
<feComposite in2="SourceAlpha" operator="in" result="effect1_backgroundBlur_4345_3541"/>
<feBlend mode="normal" in="SourceGraphic" in2="effect1_backgroundBlur_4345_3541" result="shape"/>
<feGaussianBlur stdDeviation="4.5" result="effect2_foregroundBlur_4345_3541"/>
</filter>
</defs>
</svg>
