<svg width="80" height="80" viewBox="0 0 80 80" fill="none" xmlns="http://www.w3.org/2000/svg">
<circle cx="61" cy="61" r="19" fill="#FFA6A6"/>
<g opacity="0.9" filter="url(#filter0_bf_4345_3596)">
<path d="M41.8333 62.3333C28.4864 62.3333 17.6667 51.5136 17.6667 38.1667C17.6667 24.8198 28.4864 14 41.8333 14C55.1802 14 66 24.8198 66 38.1667C66 51.5136 55.1802 62.3333 41.8333 62.3333Z" fill="#F2F6FA"/>
</g>
<path d="M41.8333 62.3333C28.4864 62.3333 17.6667 51.5136 17.6667 38.1667C17.6667 24.8198 28.4864 14 41.8333 14C55.1802 14 66 24.8198 66 38.1667C66 51.5136 55.1802 62.3333 41.8333 62.3333Z" stroke="#1E2875" stroke-width="3" stroke-linecap="round" stroke-linejoin="round"/>
<path d="M7.99997 72.0003L24.1111 55.8892" stroke="#1E2875" stroke-width="3" stroke-linecap="round" stroke-linejoin="round"/>
<path d="M32 48H52" stroke="#1E2875" stroke-width="2" stroke-miterlimit="10" stroke-linecap="round" stroke-linejoin="round"/>
<path d="M39.75 30V48H44.25V30C44.25 28.9 43.8 28 42.45 28H41.55C40.2 28 39.75 28.9 39.75 30Z" stroke="#1E2875" stroke-width="2" stroke-linecap="round" stroke-linejoin="round"/>
<path d="M31 36V48H35V36C35 34.9 34.6 34 33.4 34H32.6C31.4 34 31 34.9 31 36Z" stroke="#1E2875" stroke-width="2" stroke-linecap="round" stroke-linejoin="round"/>
<path d="M49 41V48H53V41C53 39.9 52.6 39 51.4 39H50.6C49.4 39 49 39.9 49 41Z" stroke="#1E2875" stroke-width="2" stroke-linecap="round" stroke-linejoin="round"/>
<g opacity="0.1">
<circle cx="1.5" cy="1.5" r="1.5" fill="#1E2875"/>
<circle cx="8.5" cy="1.5" r="1.5" fill="#1E2875"/>
<circle cx="15.5" cy="1.5" r="1.5" fill="#1E2875"/>
<circle cx="22.5" cy="1.5" r="1.5" fill="#1E2875"/>
<circle cx="29.5" cy="1.5" r="1.5" fill="#1E2875"/>
<circle cx="1.5" cy="7.5" r="1.5" fill="#1E2875"/>
<circle cx="8.5" cy="7.5" r="1.5" fill="#1E2875"/>
<circle cx="15.5" cy="7.5" r="1.5" fill="#1E2875"/>
<circle cx="22.5" cy="7.5" r="1.5" fill="#1E2875"/>
<circle cx="29.5" cy="7.5" r="1.5" fill="#1E2875"/>
<circle cx="1.5" cy="13.5" r="1.5" fill="#1E2875"/>
<circle cx="8.5" cy="13.5" r="1.5" fill="#1E2875"/>
<circle cx="15.5" cy="13.5" r="1.5" fill="#1E2875"/>
<circle cx="22.5" cy="13.5" r="1.5" fill="#1E2875"/>
<circle cx="29.5" cy="13.5" r="1.5" fill="#1E2875"/>
<circle cx="1.5" cy="19.5" r="1.5" fill="#1E2875"/>
<circle cx="8.5" cy="19.5" r="1.5" fill="#1E2875"/>
<circle cx="15.5" cy="19.5" r="1.5" fill="#1E2875"/>
<circle cx="22.5" cy="19.5" r="1.5" fill="#1E2875"/>
<circle cx="29.5" cy="19.5" r="1.5" fill="#1E2875"/>
<circle cx="1.5" cy="25.5" r="1.5" fill="#1E2875"/>
<circle cx="8.5" cy="25.5" r="1.5" fill="#1E2875"/>
<circle cx="15.5" cy="25.5" r="1.5" fill="#1E2875"/>
<circle cx="22.5" cy="25.5" r="1.5" fill="#1E2875"/>
<circle cx="29.5" cy="25.5" r="1.5" fill="#1E2875"/>
<circle cx="1.5" cy="31.5" r="1.5" fill="#1E2875"/>
<circle cx="8.5" cy="31.5" r="1.5" fill="#1E2875"/>
<circle cx="15.5" cy="31.5" r="1.5" fill="#1E2875"/>
<circle cx="22.5" cy="31.5" r="1.5" fill="#1E2875"/>
<circle cx="29.5" cy="31.5" r="1.5" fill="#1E2875"/>
</g>
<defs>
<filter id="filter0_bf_4345_3596" x="-22.3333" y="-26" width="128.333" height="128.333" filterUnits="userSpaceOnUse" color-interpolation-filters="sRGB">
<feFlood flood-opacity="0" result="BackgroundImageFix"/>
<feGaussianBlur in="BackgroundImage" stdDeviation="20"/>
<feComposite in2="SourceAlpha" operator="in" result="effect1_backgroundBlur_4345_3596"/>
<feBlend mode="normal" in="SourceGraphic" in2="effect1_backgroundBlur_4345_3596" result="shape"/>
<feGaussianBlur stdDeviation="4.5" result="effect2_foregroundBlur_4345_3596"/>
</filter>
</defs>
</svg>
