<svg width="76" height="76" viewBox="0 0 76 76" fill="none" xmlns="http://www.w3.org/2000/svg">
<path d="M75.7997 38.4524C71.0294 59.4 58.8917 76 38.0346 76C17.1775 76 2.65464 59.4 0.269519 38.4524C-2.54763 13.7104 17.1775 0 38.0346 0C58.8917 0 78.1849 11.9714 75.7997 38.4524Z" fill="#BFFFEE"/>
<circle cx="43" cy="37" r="15" fill="white"/>
<g clip-path="url(#clip0_4208_6300)">
<path d="M35.8751 46.5C35.484 46.5 35.1667 46.1835 35.1667 45.7918C35.1667 44.6201 36.12 43.6668 37.2917 43.6668H43.6667C44.448 43.6668 45.0833 43.0313 45.0833 42.25C45.0833 41.4687 44.448 40.8334 43.6667 40.8334H37.2917C37.216 40.8334 37.1402 40.8207 37.0679 40.7966L35.0521 40.125H31.6252C30.4605 40.125 29.3528 40.5657 28.5842 41.3343L27.8758 42.0425C27.599 42.3195 27.1513 42.3195 26.8743 42.0425C26.5972 41.7657 26.5972 41.318 26.8743 41.0409L27.5827 40.3325C28.6146 39.3006 30.088 38.7084 31.6252 38.7084H35.1667C35.2425 38.7084 35.3182 38.7211 35.3906 38.7453L37.4064 39.4169H43.6667C45.2293 39.4169 46.5001 40.6874 46.5001 42.25C46.5001 43.8126 45.2293 45.0834 43.6667 45.0834H37.2917C36.9013 45.0834 36.5833 45.4006 36.5833 45.7918C36.5833 46.1835 36.2661 46.5 35.8751 46.5Z" fill="#1E2875"/>
<path d="M32.1258 50.5424L31.1243 49.5409L32.5408 48.1243C32.6734 47.991 32.8539 47.9168 33.0417 47.9168H42.7056L50.2116 41.7756L53.3511 36.7528C53.1853 36.6558 53.011 36.5834 52.8751 36.5834C52.2473 36.5834 51.7516 36.5834 50.5426 37.7925L49.1257 39.2093C49.0847 39.2503 49.0393 39.2856 48.9898 39.3154L45.4482 41.4404L44.7193 40.2257L48.1864 38.1453L49.5415 36.7902C51.0453 35.2865 51.906 35.1669 52.8751 35.1669C53.8488 35.1669 54.6989 35.9892 54.7925 36.0825C55.0255 36.3157 55.0672 36.6792 54.8924 36.9588L51.3506 42.6256C51.3096 42.6907 51.2585 42.7493 51.1983 42.7984L43.4068 49.1733C43.2799 49.2768 43.1212 49.3334 42.9583 49.3334H33.3351L32.1258 50.5424Z" fill="#1E2875"/>
<path d="M30.2084 55C30.0271 55 29.8458 54.9307 29.7078 54.7925C29.4307 54.5157 29.4307 54.068 29.7078 53.7909L32.0403 51.4584L24.5418 43.96L22.2093 46.2925C21.9323 46.5695 21.4846 46.5695 21.2078 46.2925C20.9307 46.0157 20.9307 45.568 21.2078 45.2909L24.0409 42.4575C24.318 42.1807 24.7657 42.1807 25.0427 42.4575L33.5427 50.9575C33.8195 51.2346 33.8195 51.6823 33.5427 51.9593L30.7093 54.7925C30.5711 54.9307 30.3897 55 30.2084 55Z" fill="#1E2875"/>
<path d="M46.4994 37.2918C46.3782 37.2918 46.2558 37.2612 46.1437 37.1953C45.8052 36.9984 45.6911 36.5642 45.888 36.2265C46.7515 34.7438 47.2083 33.1529 47.2083 31.625C47.2083 26.5478 43.0774 22.4169 38.0002 22.4169C32.9227 22.4169 28.7918 26.5478 28.7918 31.625C28.7918 33.1529 29.2486 34.7438 30.1122 36.227C30.309 36.565 30.1944 36.9984 29.8564 37.1961C29.5179 37.3922 29.0852 37.2791 28.8875 36.9403C27.8987 35.241 27.3752 33.4029 27.3752 31.625C27.3752 25.7665 32.1414 21.0001 38.0002 21.0001C43.8587 21.0001 48.6251 25.7665 48.6251 31.625C48.6251 33.4029 48.1022 35.241 47.1121 36.9398C46.9811 37.1658 46.7429 37.2918 46.4994 37.2918Z" fill="#1E2875"/>
<path d="M39.4167 36.5835H36.5833C35.4118 36.5835 34.4583 35.6302 34.4583 34.4585C34.4583 34.0675 34.7758 33.75 35.1667 33.75C35.5576 33.75 35.8751 34.0675 35.8751 34.4585C35.8751 34.8488 36.1931 35.1669 36.5833 35.1669H39.4167C39.8076 35.1669 40.1251 34.8488 40.1251 34.4585V33.0419C40.1251 32.6515 39.8076 32.3335 39.4167 32.3335H36.5833C35.4118 32.3335 34.4583 31.3802 34.4583 30.2085V28.7919C34.4583 27.6202 35.4118 26.6669 36.5833 26.6669H39.4167C40.5884 26.6669 41.5417 27.6202 41.5417 28.7919C41.5417 29.1828 41.2249 29.5 40.8333 29.5C40.4416 29.5 40.1251 29.1828 40.1251 28.7919C40.1251 28.4015 39.8076 28.0835 39.4167 28.0835H36.5833C36.1931 28.0835 35.8751 28.4015 35.8751 28.7919V30.2085C35.8751 30.5988 36.1931 30.9169 36.5833 30.9169H39.4167C40.5884 30.9169 41.5417 31.8702 41.5417 33.0419V34.4585C41.5417 35.6302 40.5884 36.5835 39.4167 36.5835Z" fill="#1E2875"/>
<path d="M37.9999 38.0001C37.6087 38.0001 37.2915 37.6828 37.2915 37.2919V25.9585C37.2915 25.5676 37.6087 25.2501 37.9999 25.2501C38.3908 25.2501 38.7081 25.5676 38.7081 25.9585V37.2919C38.7081 37.6828 38.3908 38.0001 37.9999 38.0001Z" fill="#1E2875"/>
<path d="M43.6665 30.9169H45.0831V32.3335H43.6665V30.9169Z" fill="#1E2875"/>
<path d="M30.9167 30.9169H32.3333V32.3335H30.9167V30.9169Z" fill="#1E2875"/>
</g>
<defs>
<clipPath id="clip0_4208_6300">
<rect width="34" height="34" fill="white" transform="translate(21 21)"/>
</clipPath>
</defs>
</svg>
